<svg xmlns="http://www.w3.org/2000/svg" width="1920" height="1080"><path d="M-84,-145L309,-151L926,-164Z" fill="#3c3c3c" stroke="#3c3c3c" stroke-width="1.51"/><path d="M309,-151L469,-150L926,-164Z" fill="#4e4e4e" stroke="#4e4e4e" stroke-width="1.51"/><path d="M926,-164L1214,-159L1726,-173Z" fill="#303030" stroke="#303030" stroke-width="1.51"/><path d="M1655,1178L1355,1196L1796,1188Z" fill="#3d3d3d" stroke="#3d3d3d" stroke-width="1.51"/><path d="M1355,1196L1335,1198L1796,1188Z" fill="#414141" stroke="#414141" stroke-width="1.51"/><path d="M1726,-173L1813,-118L1948,-108Z" fill="#252525" stroke="#252525" stroke-width="1.51"/><path d="M1200,1208L972,1225L2022,1202Z" fill="#444444" stroke="#444444" stroke-width="1.51"/><path d="M1796,1188L1335,1198L2022,1202Z" fill="#393939" stroke="#393939" stroke-width="1.51"/><path d="M1335,1198L1200,1208L2022,1202Z" fill="#404040" stroke="#404040" stroke-width="1.51"/><path d="M1905,1181L1796,1188L2022,1202Z" fill="#393939" stroke="#393939" stroke-width="1.51"/><path d="M1726,-173L1948,-108L2058,-157Z" fill="#242424" stroke="#242424" stroke-width="1.51"/><path d="M1994,-62L2017,5L2058,-157Z" fill="#2e2e2e" stroke="#2e2e2e" stroke-width="1.51"/><path d="M2058,-157L2017,5L2072,48Z" fill="#333333" stroke="#333333" stroke-width="1.51"/><path d="M2032,430L2074,555L2081,310Z" fill="#606060" stroke="#606060" stroke-width="1.51"/><path d="M2072,48L1926,146L2092,259Z" fill="#4f4f4f" stroke="#4f4f4f" stroke-width="1.51"/><path d="M1926,146L1946,229L2092,259Z" fill="#595959" stroke="#595959" stroke-width="1.51"/><path d="M2058,-157L2072,48L2092,259Z" fill="#3f3f3f" stroke="#3f3f3f" stroke-width="1.51"/><path d="M2021,869L1988,976L2099,1004Z" fill="#3c3c3c" stroke="#3c3c3c" stroke-width="1.51"/><path d="M2008,1095L2022,1202L2099,1004Z" fill="#393939" stroke="#393939" stroke-width="1.51"/><path d="M2080,718L2021,869L2099,1004Z" fill="#414141" stroke="#414141" stroke-width="1.51"/><path d="M1943,656L2080,718L2113,645Z" fill="#4e4e4e" stroke="#4e4e4e" stroke-width="1.51"/><path d="M2074,555L1943,656L2113,645Z" fill="#535353" stroke="#535353" stroke-width="1.51"/><path d="M2092,259L2081,310L2113,645Z" fill="#616161" stroke="#616161" stroke-width="1.51"/><path d="M2081,310L2074,555L2113,645Z" fill="#5b5b5b" stroke="#5b5b5b" stroke-width="1.51"/><path d="M2080,718L2099,1004L2113,645Z" fill="#464646" stroke="#464646" stroke-width="1.51"/><path d="M1988,976L2008,1095L2099,1004Z" fill="#393939" stroke="#393939" stroke-width="1.51"/><path d="M1988,976L1960,1036L2008,1095Z" fill="#393939" stroke="#393939" stroke-width="1.51"/><path d="M1901,746L2021,869L2080,718Z" fill="#464646" stroke="#464646" stroke-width="1.51"/><path d="M1955,380L2032,430L2081,310Z" fill="#636363" stroke="#636363" stroke-width="1.51"/><path d="M1946,229L2081,310L2092,259Z" fill="#626262" stroke="#626262" stroke-width="1.51"/><path d="M1214,-159L1314,-127L1726,-173Z" fill="#2d2d2d" stroke="#2d2d2d" stroke-width="1.51"/><path d="M2017,5L1926,146L2072,48Z" fill="#424242" stroke="#424242" stroke-width="1.51"/><path d="M2032,430L1909,507L2074,555Z" fill="#5c5c5c" stroke="#5c5c5c" stroke-width="1.51"/><path d="M1943,656L1901,746L2080,718Z" fill="#4c4c4c" stroke="#4c4c4c" stroke-width="1.51"/><path d="M1946,229L1955,380L2081,310Z" fill="#676767" stroke="#676767" stroke-width="1.51"/><path d="M1909,507L1943,656L2074,555Z" fill="#575757" stroke="#575757" stroke-width="1.51"/><path d="M1946,229L1916,346L1955,380Z" fill="#676767" stroke="#676767" stroke-width="1.51"/><path d="M1948,-108L1994,-62L2058,-157Z" fill="#292929" stroke="#292929" stroke-width="1.51"/><path d="M1862,65L1926,146L2017,5Z" fill="#434343" stroke="#434343" stroke-width="1.51"/><path d="M1913,895L1988,976L2021,869Z" fill="#3e3e3e" stroke="#3e3e3e" stroke-width="1.51"/><path d="M1901,746L1913,895L2021,869Z" fill="#434343" stroke="#434343" stroke-width="1.51"/><path d="M2008,1095L1905,1181L2022,1202Z" fill="#393939" stroke="#393939" stroke-width="1.51"/><path d="M1955,380L1909,507L2032,430Z" fill="#5f5f5f" stroke="#5f5f5f" stroke-width="1.51"/><path d="M1994,-62L1850,44L2017,5Z" fill="#373737" stroke="#373737" stroke-width="1.51"/><path d="M1850,44L1862,65L2017,5Z" fill="#3d3d3d" stroke="#3d3d3d" stroke-width="1.51"/><path d="M1893,717L1901,746L1943,656Z" fill="#4c4c4c" stroke="#4c4c4c" stroke-width="1.51"/><path d="M1960,1036L1905,1181L2008,1095Z" fill="#393939" stroke="#393939" stroke-width="1.51"/><path d="M787,1202L368,1251L972,1225Z" fill="#636363" stroke="#636363" stroke-width="1.51"/><path d="M1854,1142L1905,1181L1960,1036Z" fill="#393939" stroke="#393939" stroke-width="1.51"/><path d="M1948,-108L1850,44L1994,-62Z" fill="#323232" stroke="#323232" stroke-width="1.51"/><path d="M1867,405L1909,507L1955,380Z" fill="#606060" stroke="#606060" stroke-width="1.51"/><path d="M1872,923L1960,1036L1988,976Z" fill="#3b3b3b" stroke="#3b3b3b" stroke-width="1.51"/><path d="M1913,895L1872,923L1988,976Z" fill="#3d3d3d" stroke="#3d3d3d" stroke-width="1.51"/><path d="M1545,1160L1355,1196L1655,1178Z" fill="#404040" stroke="#404040" stroke-width="1.51"/><path d="M1909,507L1823,615L1943,656Z" fill="#555555" stroke="#555555" stroke-width="1.51"/><path d="M1847,253L1916,346L1946,229Z" fill="#646464" stroke="#646464" stroke-width="1.51"/><path d="M1813,-118L1850,44L1948,-108Z" fill="#2f2f2f" stroke="#2f2f2f" stroke-width="1.51"/><path d="M1872,923L1795,1022L1960,1036Z" fill="#3a3a3a" stroke="#3a3a3a" stroke-width="1.51"/><path d="M1795,1022L1854,1142L1960,1036Z" fill="#393939" stroke="#393939" stroke-width="1.51"/><path d="M1916,346L1867,405L1955,380Z" fill="#636363" stroke="#636363" stroke-width="1.51"/><path d="M1926,146L1847,253L1946,229Z" fill="#585858" stroke="#585858" stroke-width="1.51"/><path d="M1823,615L1893,717L1943,656Z" fill="#4f4f4f" stroke="#4f4f4f" stroke-width="1.51"/><path d="M1314,-127L1619,-121L1726,-173Z" fill="#2a2a2a" stroke="#2a2a2a" stroke-width="1.51"/><path d="M1901,746L1751,841L1913,895Z" fill="#434343" stroke="#434343" stroke-width="1.51"/><path d="M1751,841L1872,923L1913,895Z" fill="#404040" stroke="#404040" stroke-width="1.51"/><path d="M1862,65L1847,253L1926,146Z" fill="#505050" stroke="#505050" stroke-width="1.51"/><path d="M1718,131L1847,253L1862,65Z" fill="#4f4f4f" stroke="#4f4f4f" stroke-width="1.51"/><path d="M1867,405L1790,512L1909,507Z" fill="#5d5d5d" stroke="#5d5d5d" stroke-width="1.51"/><path d="M1790,512L1823,615L1909,507Z" fill="#585858" stroke="#585858" stroke-width="1.51"/><path d="M1787,364L1867,405L1916,346Z" fill="#636363" stroke="#636363" stroke-width="1.51"/><path d="M1847,253L1787,364L1916,346Z" fill="#676767" stroke="#676767" stroke-width="1.51"/><path d="M1813,-118L1769,25L1850,44Z" fill="#353535" stroke="#353535" stroke-width="1.51"/><path d="M1724,789L1751,841L1901,746Z" fill="#454545" stroke="#454545" stroke-width="1.51"/><path d="M1854,1142L1796,1188L1905,1181Z" fill="#393939" stroke="#393939" stroke-width="1.51"/><path d="M1893,717L1724,789L1901,746Z" fill="#484848" stroke="#484848" stroke-width="1.51"/><path d="M1775,954L1795,1022L1872,923Z" fill="#3c3c3c" stroke="#3c3c3c" stroke-width="1.51"/><path d="M1823,615L1736,633L1893,717Z" fill="#505050" stroke="#505050" stroke-width="1.51"/><path d="M1736,633L1724,789L1893,717Z" fill="#4b4b4b" stroke="#4b4b4b" stroke-width="1.51"/><path d="M1718,131L1712,206L1847,253Z" fill="#575757" stroke="#575757" stroke-width="1.51"/><path d="M1795,1022L1734,1064L1854,1142Z" fill="#393939" stroke="#393939" stroke-width="1.51"/><path d="M1787,364L1790,512L1867,405Z" fill="#606060" stroke="#606060" stroke-width="1.51"/><path d="M1751,841L1775,954L1872,923Z" fill="#3f3f3f" stroke="#3f3f3f" stroke-width="1.51"/><path d="M1769,25L1718,131L1862,65Z" fill="#434343" stroke="#434343" stroke-width="1.51"/><path d="M1850,44L1769,25L1862,65Z" fill="#3e3e3e" stroke="#3e3e3e" stroke-width="1.51"/><path d="M1787,364L1746,502L1790,512Z" fill="#5e5e5e" stroke="#5e5e5e" stroke-width="1.51"/><path d="M1734,1064L1796,1188L1854,1142Z" fill="#393939" stroke="#393939" stroke-width="1.51"/><path d="M1712,206L1787,364L1847,253Z" fill="#636363" stroke="#636363" stroke-width="1.51"/><path d="M1085,1207L972,1225L1200,1208Z" fill="#535353" stroke="#535353" stroke-width="1.51"/><path d="M1726,-173L1645,7L1769,25Z" fill="#323232" stroke="#323232" stroke-width="1.51"/><path d="M1712,206L1676,346L1787,364Z" fill="#676767" stroke="#676767" stroke-width="1.51"/><path d="M1694,406L1746,502L1787,364Z" fill="#606060" stroke="#606060" stroke-width="1.51"/><path d="M1734,1064L1684,1147L1796,1188Z" fill="#393939" stroke="#393939" stroke-width="1.51"/><path d="M1726,-173L1769,25L1813,-118Z" fill="#2b2b2b" stroke="#2b2b2b" stroke-width="1.51"/><path d="M1790,512L1736,633L1823,615Z" fill="#555555" stroke="#555555" stroke-width="1.51"/><path d="M1746,502L1736,633L1790,512Z" fill="#585858" stroke="#585858" stroke-width="1.51"/><path d="M1619,-121L1645,7L1726,-173Z" fill="#2d2d2d" stroke="#2d2d2d" stroke-width="1.51"/><path d="M1775,954L1734,1064L1795,1022Z" fill="#393939" stroke="#393939" stroke-width="1.51"/><path d="M1684,1147L1655,1178L1796,1188Z" fill="#393939" stroke="#393939" stroke-width="1.51"/><path d="M1751,841L1663,931L1775,954Z" fill="#3f3f3f" stroke="#3f3f3f" stroke-width="1.51"/><path d="M1676,346L1694,406L1787,364Z" fill="#646464" stroke="#646464" stroke-width="1.51"/><path d="M1645,7L1718,131L1769,25Z" fill="#404040" stroke="#404040" stroke-width="1.51"/><path d="M1663,931L1734,1064L1775,954Z" fill="#3b3b3b" stroke="#3b3b3b" stroke-width="1.51"/><path d="M1611,646L1724,789L1736,633Z" fill="#4f4f4f" stroke="#4f4f4f" stroke-width="1.51"/><path d="M1603,524L1736,633L1746,502Z" fill="#595959" stroke="#595959" stroke-width="1.51"/><path d="M1694,406L1660,465L1746,502Z" fill="#5f5f5f" stroke="#5f5f5f" stroke-width="1.51"/><path d="M1624,302L1676,346L1712,206Z" fill="#676767" stroke="#676767" stroke-width="1.51"/><path d="M1603,524L1611,646L1736,633Z" fill="#575757" stroke="#575757" stroke-width="1.51"/><path d="M1660,465L1603,524L1746,502Z" fill="#5e5e5e" stroke="#5e5e5e" stroke-width="1.51"/><path d="M1724,789L1663,931L1751,841Z" fill="#424242" stroke="#424242" stroke-width="1.51"/><path d="M1314,-127L1423,-81L1619,-121Z" fill="#313131" stroke="#313131" stroke-width="1.51"/><path d="M1662,172L1712,206L1718,131Z" fill="#535353" stroke="#535353" stroke-width="1.51"/><path d="M1579,802L1663,931L1724,789Z" fill="#454545" stroke="#454545" stroke-width="1.51"/><path d="M1611,646L1579,802L1724,789Z" fill="#4c4c4c" stroke="#4c4c4c" stroke-width="1.51"/><path d="M1663,931L1566,1118L1734,1064Z" fill="#3b3b3b" stroke="#3b3b3b" stroke-width="1.51"/><path d="M1566,1118L1684,1147L1734,1064Z" fill="#3b3b3b" stroke="#3b3b3b" stroke-width="1.51"/><path d="M1645,7L1560,101L1662,172Z" fill="#4a4a4a" stroke="#4a4a4a" stroke-width="1.51"/><path d="M1645,7L1662,172L1718,131Z" fill="#4a4a4a" stroke="#4a4a4a" stroke-width="1.51"/><path d="M1560,101L1571,135L1662,172Z" fill="#525252" stroke="#525252" stroke-width="1.51"/><path d="M1662,172L1624,302L1712,206Z" fill="#5d5d5d" stroke="#5d5d5d" stroke-width="1.51"/><path d="M1580,919L1536,1097L1663,931Z" fill="#3f3f3f" stroke="#3f3f3f" stroke-width="1.51"/><path d="M1536,1097L1566,1118L1663,931Z" fill="#3e3e3e" stroke="#3e3e3e" stroke-width="1.51"/><path d="M1579,802L1580,919L1663,931Z" fill="#444444" stroke="#444444" stroke-width="1.51"/><path d="M1676,346L1660,465L1694,406Z" fill="#646464" stroke="#646464" stroke-width="1.51"/><path d="M1624,302L1660,465L1676,346Z" fill="#666666" stroke="#666666" stroke-width="1.51"/><path d="M1566,1118L1655,1178L1684,1147Z" fill="#3c3c3c" stroke="#3c3c3c" stroke-width="1.51"/><path d="M1423,-81L1486,-70L1619,-121Z" fill="#323232" stroke="#323232" stroke-width="1.51"/><path d="M1456,398L1505,492L1624,302Z" fill="#696969" stroke="#696969" stroke-width="1.51"/><path d="M1624,302L1505,492L1660,465Z" fill="#656565" stroke="#656565" stroke-width="1.51"/><path d="M1517,188L1624,302L1662,172Z" fill="#5f5f5f" stroke="#5f5f5f" stroke-width="1.51"/><path d="M1505,492L1603,524L1660,465Z" fill="#616161" stroke="#616161" stroke-width="1.51"/><path d="M1571,135L1517,188L1662,172Z" fill="#575757" stroke="#575757" stroke-width="1.51"/><path d="M1619,-121L1488,-30L1645,7Z" fill="#363636" stroke="#363636" stroke-width="1.51"/><path d="M1566,1118L1545,1160L1655,1178Z" fill="#3e3e3e" stroke="#3e3e3e" stroke-width="1.51"/><path d="M1465,985L1536,1097L1580,919Z" fill="#414141" stroke="#414141" stroke-width="1.51"/><path d="M1579,802L1534,874L1580,919Z" fill="#474747" stroke="#474747" stroke-width="1.51"/><path d="M1475,720L1579,802L1611,646Z" fill="#515151" stroke="#515151" stroke-width="1.51"/><path d="M1486,-70L1488,-30L1619,-121Z" fill="#343434" stroke="#343434" stroke-width="1.51"/><path d="M1488,-30L1560,101L1645,7Z" fill="#414141" stroke="#414141" stroke-width="1.51"/><path d="M1603,524L1456,624L1611,646Z" fill="#5b5b5b" stroke="#5b5b5b" stroke-width="1.51"/><path d="M1475,281L1452,334L1624,302Z" fill="#707070" stroke="#707070" stroke-width="1.51"/><path d="M1452,334L1456,398L1624,302Z" fill="#6d6d6d" stroke="#6d6d6d" stroke-width="1.51"/><path d="M1517,188L1475,281L1624,302Z" fill="#676767" stroke="#676767" stroke-width="1.51"/><path d="M1505,492L1456,624L1603,524Z" fill="#606060" stroke="#606060" stroke-width="1.51"/><path d="M1456,624L1475,720L1611,646Z" fill="#575757" stroke="#575757" stroke-width="1.51"/><path d="M1534,874L1465,985L1580,919Z" fill="#454545" stroke="#454545" stroke-width="1.51"/><path d="M1475,720L1534,874L1579,802Z" fill="#4c4c4c" stroke="#4c4c4c" stroke-width="1.51"/><path d="M1560,101L1517,188L1571,135Z" fill="#545454" stroke="#545454" stroke-width="1.51"/><path d="M1488,-30L1401,93L1560,101Z" fill="#484848" stroke="#484848" stroke-width="1.51"/><path d="M1536,1097L1545,1160L1566,1118Z" fill="#3f3f3f" stroke="#3f3f3f" stroke-width="1.51"/><path d="M1475,720L1398,863L1534,874Z" fill="#4d4d4d" stroke="#4d4d4d" stroke-width="1.51"/><path d="M1401,93L1517,188L1560,101Z" fill="#545454" stroke="#545454" stroke-width="1.51"/><path d="M1401,93L1416,170L1517,188Z" fill="#595959" stroke="#595959" stroke-width="1.51"/><path d="M1536,1097L1387,1080L1545,1160Z" fill="#414141" stroke="#414141" stroke-width="1.51"/><path d="M1387,1080L1355,1196L1545,1160Z" fill="#434343" stroke="#434343" stroke-width="1.51"/><path d="M1456,624L1450,707L1475,720Z" fill="#575757" stroke="#575757" stroke-width="1.51"/><path d="M1414,593L1456,624L1505,492Z" fill="#616161" stroke="#616161" stroke-width="1.51"/><path d="M1398,863L1465,985L1534,874Z" fill="#484848" stroke="#484848" stroke-width="1.51"/><path d="M1465,985L1387,1080L1536,1097Z" fill="#424242" stroke="#424242" stroke-width="1.51"/><path d="M1456,398L1429,412L1505,492Z" fill="#6a6a6a" stroke="#6a6a6a" stroke-width="1.51"/><path d="M1416,170L1475,281L1517,188Z" fill="#636363" stroke="#636363" stroke-width="1.51"/><path d="M1398,863L1379,950L1465,985Z" fill="#484848" stroke="#484848" stroke-width="1.51"/><path d="M1450,707L1398,863L1475,720Z" fill="#515151" stroke="#515151" stroke-width="1.51"/><path d="M1429,412L1414,593L1505,492Z" fill="#666666" stroke="#666666" stroke-width="1.51"/><path d="M1421,693L1450,707L1456,624Z" fill="#595959" stroke="#595959" stroke-width="1.51"/><path d="M1423,-81L1360,-46L1488,-30Z" fill="#3a3a3a" stroke="#3a3a3a" stroke-width="1.51"/><path d="M1360,-46L1401,93L1488,-30Z" fill="#444444" stroke="#444444" stroke-width="1.51"/><path d="M1486,-70L1423,-81L1488,-30Z" fill="#383838" stroke="#383838" stroke-width="1.51"/><path d="M1421,693L1398,863L1450,707Z" fill="#535353" stroke="#535353" stroke-width="1.51"/><path d="M1416,170L1325,367L1452,334Z" fill="#737373" stroke="#737373" stroke-width="1.51"/><path d="M1416,170L1452,334L1475,281Z" fill="#6c6c6c" stroke="#6c6c6c" stroke-width="1.51"/><path d="M1255,521L1414,593L1429,412Z" fill="#686868" stroke="#686868" stroke-width="1.51"/><path d="M1452,334L1429,412L1456,398Z" fill="#6e6e6e" stroke="#6e6e6e" stroke-width="1.51"/><path d="M1379,950L1387,1080L1465,985Z" fill="#444444" stroke="#444444" stroke-width="1.51"/><path d="M1360,-46L1318,5L1401,93Z" fill="#474747" stroke="#474747" stroke-width="1.51"/><path d="M1251,222L1325,367L1416,170Z" fill="#6f6f6f" stroke="#6f6f6f" stroke-width="1.51"/><path d="M1277,714L1398,863L1421,693Z" fill="#555555" stroke="#555555" stroke-width="1.51"/><path d="M1325,367L1429,412L1452,334Z" fill="#707070" stroke="#707070" stroke-width="1.51"/><path d="M1414,593L1421,693L1456,624Z" fill="#5c5c5c" stroke="#5c5c5c" stroke-width="1.51"/><path d="M1318,5L1324,59L1401,93Z" fill="#4d4d4d" stroke="#4d4d4d" stroke-width="1.51"/><path d="M1255,521L1316,612L1414,593Z" fill="#656565" stroke="#656565" stroke-width="1.51"/><path d="M1414,593L1316,612L1421,693Z" fill="#5e5e5e" stroke="#5e5e5e" stroke-width="1.51"/><path d="M1325,367L1288,384L1429,412Z" fill="#717171" stroke="#717171" stroke-width="1.51"/><path d="M1288,384L1255,521L1429,412Z" fill="#6e6e6e" stroke="#6e6e6e" stroke-width="1.51"/><path d="M1379,950L1295,1063L1387,1080Z" fill="#464646" stroke="#464646" stroke-width="1.51"/><path d="M1277,714L1314,888L1398,863Z" fill="#525252" stroke="#525252" stroke-width="1.51"/><path d="M1314,-127L1360,-46L1423,-81Z" fill="#383838" stroke="#383838" stroke-width="1.51"/><path d="M1316,612L1277,714L1421,693Z" fill="#5d5d5d" stroke="#5d5d5d" stroke-width="1.51"/><path d="M1401,93L1324,59L1416,170Z" fill="#545454" stroke="#545454" stroke-width="1.51"/><path d="M1324,59L1231,164L1416,170Z" fill="#5b5b5b" stroke="#5b5b5b" stroke-width="1.51"/><path d="M1231,164L1251,222L1416,170Z" fill="#656565" stroke="#656565" stroke-width="1.51"/><path d="M1314,888L1379,950L1398,863Z" fill="#4c4c4c" stroke="#4c4c4c" stroke-width="1.51"/><path d="M1335,1198L1355,1196L1387,1080Z" fill="#464646" stroke="#464646" stroke-width="1.51"/><path d="M1295,1063L1335,1198L1387,1080Z" fill="#474747" stroke="#474747" stroke-width="1.51"/><path d="M926,-164L1025,-131L1214,-159Z" fill="#3c3c3c" stroke="#3c3c3c" stroke-width="1.51"/><path d="M1242,1011L1295,1063L1379,950Z" fill="#494949" stroke="#494949" stroke-width="1.51"/><path d="M1314,888L1242,1011L1379,950Z" fill="#4b4b4b" stroke="#4b4b4b" stroke-width="1.51"/><path d="M1277,714L1200,783L1314,888Z" fill="#575757" stroke="#575757" stroke-width="1.51"/><path d="M1314,-127L1318,5L1360,-46Z" fill="#3d3d3d" stroke="#3d3d3d" stroke-width="1.51"/><path d="M1230,908L1242,1011L1314,888Z" fill="#4f4f4f" stroke="#4f4f4f" stroke-width="1.51"/><path d="M1251,222L1288,384L1325,367Z" fill="#787878" stroke="#787878" stroke-width="1.51"/><path d="M1295,1063L1199,1135L1335,1198Z" fill="#4a4a4a" stroke="#4a4a4a" stroke-width="1.51"/><path d="M637,1189L368,1251L787,1202Z" fill="#676767" stroke="#676767" stroke-width="1.51"/><path d="M1314,-127L1166,-24L1318,5Z" fill="#424242" stroke="#424242" stroke-width="1.51"/><path d="M1199,1135L1200,1208L1335,1198Z" fill="#4b4b4b" stroke="#4b4b4b" stroke-width="1.51"/><path d="M1251,222L1161,297L1288,384Z" fill="#7c7c7c" stroke="#7c7c7c" stroke-width="1.51"/><path d="M1161,297L1216,392L1288,384Z" fill="#797979" stroke="#797979" stroke-width="1.51"/><path d="M1216,392L1255,521L1288,384Z" fill="#737373" stroke="#737373" stroke-width="1.51"/><path d="M1214,-159L1166,-24L1314,-127Z" fill="#3b3b3b" stroke="#3b3b3b" stroke-width="1.51"/><path d="M1200,783L1230,908L1314,888Z" fill="#545454" stroke="#545454" stroke-width="1.51"/><path d="M1318,5L1164,85L1324,59Z" fill="#515151" stroke="#515151" stroke-width="1.51"/><path d="M1164,85L1231,164L1324,59Z" fill="#5a5a5a" stroke="#5a5a5a" stroke-width="1.51"/><path d="M1162,561L1277,714L1316,612Z" fill="#646464" stroke="#646464" stroke-width="1.51"/><path d="M1166,-24L1164,85L1318,5Z" fill="#4f4f4f" stroke="#4f4f4f" stroke-width="1.51"/><path d="M1255,521L1162,561L1316,612Z" fill="#6a6a6a" stroke="#6a6a6a" stroke-width="1.51"/><path d="M1162,561L1125,605L1277,714Z" fill="#686868" stroke="#686868" stroke-width="1.51"/><path d="M1242,1011L1199,1135L1295,1063Z" fill="#4b4b4b" stroke="#4b4b4b" stroke-width="1.51"/><path d="M469,-150L640,-113L926,-164Z" fill="#4c4c4c" stroke="#4c4c4c" stroke-width="1.51"/><path d="M1125,605L1200,783L1277,714Z" fill="#616161" stroke="#616161" stroke-width="1.51"/><path d="M1125,605L1074,654L1200,783Z" fill="#666666" stroke="#666666" stroke-width="1.51"/><path d="M1098,1073L1199,1135L1242,1011Z" fill="#4e4e4e" stroke="#4e4e4e" stroke-width="1.51"/><path d="M1230,908L1131,955L1242,1011Z" fill="#505050" stroke="#505050" stroke-width="1.51"/><path d="M1216,392L1162,561L1255,521Z" fill="#717171" stroke="#717171" stroke-width="1.51"/><path d="M1231,164L1161,297L1251,222Z" fill="#717171" stroke="#717171" stroke-width="1.51"/><path d="M1058,400L1162,561L1216,392Z" fill="#777777" stroke="#777777" stroke-width="1.51"/><path d="M1200,783L1108,791L1230,908Z" fill="#595959" stroke="#595959" stroke-width="1.51"/><path d="M1108,791L1073,891L1230,908Z" fill="#595959" stroke="#595959" stroke-width="1.51"/><path d="M1076,164L1161,297L1231,164Z" fill="#707070" stroke="#707070" stroke-width="1.51"/><path d="M1131,955L1098,1073L1242,1011Z" fill="#4f4f4f" stroke="#4f4f4f" stroke-width="1.51"/><path d="M1074,654L1108,791L1200,783Z" fill="#626262" stroke="#626262" stroke-width="1.51"/><path d="M1073,891L1131,955L1230,908Z" fill="#565656" stroke="#565656" stroke-width="1.51"/><path d="M1164,85L1076,164L1231,164Z" fill="#646464" stroke="#646464" stroke-width="1.51"/><path d="M1058,400L1100,562L1162,561Z" fill="#757575" stroke="#757575" stroke-width="1.51"/><path d="M1025,-131L1166,-24L1214,-159Z" fill="#3f3f3f" stroke="#3f3f3f" stroke-width="1.51"/><path d="M1161,297L1058,400L1216,392Z" fill="#7d7d7d" stroke="#7d7d7d" stroke-width="1.51"/><path d="M1123,71L1164,85L1166,-24Z" fill="#555555" stroke="#555555" stroke-width="1.51"/><path d="M1199,1135L1085,1207L1200,1208Z" fill="#4f4f4f" stroke="#4f4f4f" stroke-width="1.51"/><path d="M1098,1073L1085,1207L1199,1135Z" fill="#515151" stroke="#515151" stroke-width="1.51"/><path d="M1076,164L1016,335L1161,297Z" fill="#7e7e7e" stroke="#7e7e7e" stroke-width="1.51"/><path d="M1016,335L1058,400L1161,297Z" fill="#828282" stroke="#828282" stroke-width="1.51"/><path d="M1123,71L1076,164L1164,85Z" fill="#616161" stroke="#616161" stroke-width="1.51"/><path d="M1047,13L1123,71L1166,-24Z" fill="#535353" stroke="#535353" stroke-width="1.51"/><path d="M1025,-131L1047,13L1166,-24Z" fill="#4b4b4b" stroke="#4b4b4b" stroke-width="1.51"/><path d="M1100,562L1125,605L1162,561Z" fill="#6f6f6f" stroke="#6f6f6f" stroke-width="1.51"/><path d="M1039,998L1098,1073L1131,955Z" fill="#535353" stroke="#535353" stroke-width="1.51"/><path d="M640,-113L794,-115L926,-164Z" fill="#4a4a4a" stroke="#4a4a4a" stroke-width="1.51"/><path d="M979,1142L1085,1207L1098,1073Z" fill="#545454" stroke="#545454" stroke-width="1.51"/><path d="M1073,891L1039,998L1131,955Z" fill="#575757" stroke="#575757" stroke-width="1.51"/><path d="M1058,400L938,516L1100,562Z" fill="#7a7a7a" stroke="#7a7a7a" stroke-width="1.51"/><path d="M1074,654L970,690L1108,791Z" fill="#686868" stroke="#686868" stroke-width="1.51"/><path d="M970,690L960,755L1108,791Z" fill="#676767" stroke="#676767" stroke-width="1.51"/><path d="M1047,13L1076,164L1123,71Z" fill="#5f5f5f" stroke="#5f5f5f" stroke-width="1.51"/><path d="M1100,562L1074,654L1125,605Z" fill="#6e6e6e" stroke="#6e6e6e" stroke-width="1.51"/><path d="M930,280L1016,335L1076,164Z" fill="#818181" stroke="#818181" stroke-width="1.51"/><path d="M1047,13L937,81L1076,164Z" fill="#636363" stroke="#636363" stroke-width="1.51"/><path d="M960,755L996,823L1108,791Z" fill="#646464" stroke="#646464" stroke-width="1.51"/><path d="M996,823L1073,891L1108,791Z" fill="#5f5f5f" stroke="#5f5f5f" stroke-width="1.51"/><path d="M1025,-131L970,-22L1047,13Z" fill="#4e4e4e" stroke="#4e4e4e" stroke-width="1.51"/><path d="M938,516L1074,654L1100,562Z" fill="#747474" stroke="#747474" stroke-width="1.51"/><path d="M1039,998L979,1142L1098,1073Z" fill="#555555" stroke="#555555" stroke-width="1.51"/><path d="M938,516L970,690L1074,654Z" fill="#727272" stroke="#727272" stroke-width="1.51"/><path d="M907,235L930,280L1076,164Z" fill="#7d7d7d" stroke="#7d7d7d" stroke-width="1.51"/><path d="M979,1142L972,1225L1085,1207Z" fill="#575757" stroke="#575757" stroke-width="1.51"/><path d="M923,413L938,516L1058,400Z" fill="#818181" stroke="#818181" stroke-width="1.51"/><path d="M996,823L1039,998L1073,891Z" fill="#5c5c5c" stroke="#5c5c5c" stroke-width="1.51"/><path d="M937,81L907,235L1076,164Z" fill="#727272" stroke="#727272" stroke-width="1.51"/><path d="M996,823L912,1000L1039,998Z" fill="#5c5c5c" stroke="#5c5c5c" stroke-width="1.51"/><path d="M912,1000L979,1142L1039,998Z" fill="#585858" stroke="#585858" stroke-width="1.51"/><path d="M1016,335L923,413L1058,400Z" fill="#838383" stroke="#838383" stroke-width="1.51"/><path d="M970,-22L937,81L1047,13Z" fill="#5a5a5a" stroke="#5a5a5a" stroke-width="1.51"/><path d="M938,516L867,639L970,690Z" fill="#767676" stroke="#767676" stroke-width="1.51"/><path d="M926,-164L883,-110L970,-22Z" fill="#4a4a4a" stroke="#4a4a4a" stroke-width="1.51"/><path d="M926,-164L970,-22L1025,-131Z" fill="#474747" stroke="#474747" stroke-width="1.51"/><path d="M805,876L912,1000L996,823Z" fill="#626262" stroke="#626262" stroke-width="1.51"/><path d="M930,280L884,332L1016,335Z" fill="#8a8a8a" stroke="#8a8a8a" stroke-width="1.51"/><path d="M884,332L923,413L1016,335Z" fill="#888888" stroke="#888888" stroke-width="1.51"/><path d="M848,153L907,235L937,81Z" fill="#747474" stroke="#747474" stroke-width="1.51"/><path d="M912,1000L862,1034L979,1142Z" fill="#5a5a5a" stroke="#5a5a5a" stroke-width="1.51"/><path d="M960,755L805,876L996,823Z" fill="#666666" stroke="#666666" stroke-width="1.51"/><path d="M866,532L867,639L938,516Z" fill="#7c7c7c" stroke="#7c7c7c" stroke-width="1.51"/><path d="M869,1162L787,1202L972,1225Z" fill="#5c5c5c" stroke="#5c5c5c" stroke-width="1.51"/><path d="M862,1034L869,1162L979,1142Z" fill="#5b5b5b" stroke="#5b5b5b" stroke-width="1.51"/><path d="M869,1162L972,1225L979,1142Z" fill="#5a5a5a" stroke="#5a5a5a" stroke-width="1.51"/><path d="M811,729L805,876L960,755Z" fill="#6b6b6b" stroke="#6b6b6b" stroke-width="1.51"/><path d="M867,639L960,755L970,690Z" fill="#6f6f6f" stroke="#6f6f6f" stroke-width="1.51"/><path d="M797,20L937,81L970,-22Z" fill="#5f5f5f" stroke="#5f5f5f" stroke-width="1.51"/><path d="M867,639L811,729L960,755Z" fill="#707070" stroke="#707070" stroke-width="1.51"/><path d="M883,-110L797,20L970,-22Z" fill="#555555" stroke="#555555" stroke-width="1.51"/><path d="M923,413L857,430L938,516Z" fill="#838383" stroke="#838383" stroke-width="1.51"/><path d="M907,235L895,256L930,280Z" fill="#858585" stroke="#858585" stroke-width="1.51"/><path d="M857,430L866,532L938,516Z" fill="#818181" stroke="#818181" stroke-width="1.51"/><path d="M797,20L848,153L937,81Z" fill="#696969" stroke="#696969" stroke-width="1.51"/><path d="M767,787L805,876L811,729Z" fill="#6d6d6d" stroke="#6d6d6d" stroke-width="1.51"/><path d="M884,332L857,430L923,413Z" fill="#888888" stroke="#888888" stroke-width="1.51"/><path d="M895,256L884,332L930,280Z" fill="#8b8b8b" stroke="#8b8b8b" stroke-width="1.51"/><path d="M805,876L862,1034L912,1000Z" fill="#5f5f5f" stroke="#5f5f5f" stroke-width="1.51"/><path d="M794,-115L883,-110L926,-164Z" fill="#474747" stroke="#474747" stroke-width="1.51"/><path d="M862,1034L806,1065L869,1162Z" fill="#5d5d5d" stroke="#5d5d5d" stroke-width="1.51"/><path d="M805,876L745,949L862,1034Z" fill="#636363" stroke="#636363" stroke-width="1.51"/><path d="M794,-115L797,20L883,-110Z" fill="#525252" stroke="#525252" stroke-width="1.51"/><path d="M848,153L895,256L907,235Z" fill="#7e7e7e" stroke="#7e7e7e" stroke-width="1.51"/><path d="M776,369L785,406L857,430Z" fill="#8a8a8a" stroke="#8a8a8a" stroke-width="1.51"/><path d="M776,369L857,430L884,332Z" fill="#8b8b8b" stroke="#8b8b8b" stroke-width="1.51"/><path d="M848,153L700,239L895,256Z" fill="#828282" stroke="#828282" stroke-width="1.51"/><path d="M776,369L884,332L895,256Z" fill="#8e8e8e" stroke="#8e8e8e" stroke-width="1.51"/><path d="M700,239L776,369L895,256Z" fill="#8f8f8f" stroke="#8f8f8f" stroke-width="1.51"/><path d="M866,532L779,643L867,639Z" fill="#7a7a7a" stroke="#7a7a7a" stroke-width="1.51"/><path d="M745,949L754,1047L806,1065Z" fill="#606060" stroke="#606060" stroke-width="1.51"/><path d="M745,949L806,1065L862,1034Z" fill="#5f5f5f" stroke="#5f5f5f" stroke-width="1.51"/><path d="M857,430L785,406L866,532Z" fill="#858585" stroke="#858585" stroke-width="1.51"/><path d="M785,406L733,538L866,532Z" fill="#858585" stroke="#858585" stroke-width="1.51"/><path d="M733,538L779,643L866,532Z" fill="#7f7f7f" stroke="#7f7f7f" stroke-width="1.51"/><path d="M779,643L811,729L867,639Z" fill="#767676" stroke="#767676" stroke-width="1.51"/><path d="M806,1065L787,1202L869,1162Z" fill="#5e5e5e" stroke="#5e5e5e" stroke-width="1.51"/><path d="M797,20L706,103L848,153Z" fill="#6d6d6d" stroke="#6d6d6d" stroke-width="1.51"/><path d="M794,-115L723,-28L797,20Z" fill="#595959" stroke="#595959" stroke-width="1.51"/><path d="M706,103L700,239L848,153Z" fill="#7b7b7b" stroke="#7b7b7b" stroke-width="1.51"/><path d="M-84,-145L92,-121L309,-151Z" fill="#252525" stroke="#252525" stroke-width="1.51"/><path d="M671,203L700,239L706,103Z" fill="#818181" stroke="#818181" stroke-width="1.51"/><path d="M754,1047L637,1189L787,1202Z" fill="#626262" stroke="#626262" stroke-width="1.51"/><path d="M767,787L712,831L805,876Z" fill="#6c6c6c" stroke="#6c6c6c" stroke-width="1.51"/><path d="M754,1047L787,1202L806,1065Z" fill="#606060" stroke="#606060" stroke-width="1.51"/><path d="M779,643L767,787L811,729Z" fill="#737373" stroke="#737373" stroke-width="1.51"/><path d="M652,773L767,787L779,643Z" fill="#747474" stroke="#747474" stroke-width="1.51"/><path d="M712,831L745,949L805,876Z" fill="#696969" stroke="#696969" stroke-width="1.51"/><path d="M647,514L733,538L785,406Z" fill="#888888" stroke="#888888" stroke-width="1.51"/><path d="M723,-28L706,103L797,20Z" fill="#656565" stroke="#656565" stroke-width="1.51"/><path d="M640,-113L723,-28L794,-115Z" fill="#545454" stroke="#545454" stroke-width="1.51"/><path d="M611,1141L637,1189L754,1047Z" fill="#646464" stroke="#646464" stroke-width="1.51"/><path d="M621,630L652,773L779,643Z" fill="#7a7a7a" stroke="#7a7a7a" stroke-width="1.51"/><path d="M776,369L598,369L785,406Z" fill="#8f8f8f" stroke="#8f8f8f" stroke-width="1.51"/><path d="M598,369L647,514L785,406Z" fill="#8e8e8e" stroke="#8e8e8e" stroke-width="1.51"/><path d="M712,831L674,932L745,949Z" fill="#6a6a6a" stroke="#6a6a6a" stroke-width="1.51"/><path d="M700,239L598,369L776,369Z" fill="#949494" stroke="#949494" stroke-width="1.51"/><path d="M733,538L621,630L779,643Z" fill="#808080" stroke="#808080" stroke-width="1.51"/><path d="M745,949L674,932L754,1047Z" fill="#646464" stroke="#646464" stroke-width="1.51"/><path d="M652,773L712,831L767,787Z" fill="#707070" stroke="#707070" stroke-width="1.51"/><path d="M674,932L611,1141L754,1047Z" fill="#646464" stroke="#646464" stroke-width="1.51"/><path d="M632,-41L706,103L723,-28Z" fill="#646464" stroke="#646464" stroke-width="1.51"/><path d="M647,514L621,630L733,538Z" fill="#858585" stroke="#858585" stroke-width="1.51"/><path d="M632,-41L627,115L706,103Z" fill="#6d6d6d" stroke="#6d6d6d" stroke-width="1.51"/><path d="M640,-113L632,-41L723,-28Z" fill="#5a5a5a" stroke="#5a5a5a" stroke-width="1.51"/><path d="M598,369L575,466L647,514Z" fill="#8f8f8f" stroke="#8f8f8f" stroke-width="1.51"/><path d="M627,115L671,203L706,103Z" fill="#7b7b7b" stroke="#7b7b7b" stroke-width="1.51"/><path d="M610,873L674,932L712,831Z" fill="#6c6c6c" stroke="#6c6c6c" stroke-width="1.51"/><path d="M485,1035L611,1141L674,932Z" fill="#676767" stroke="#676767" stroke-width="1.51"/><path d="M652,773L610,873L712,831Z" fill="#717171" stroke="#717171" stroke-width="1.51"/><path d="M524,297L598,369L671,203Z" fill="#989898" stroke="#989898" stroke-width="1.51"/><path d="M671,203L598,369L700,239Z" fill="#929292" stroke="#929292" stroke-width="1.51"/><path d="M522,-5L627,115L632,-41Z" fill="#6a6a6a" stroke="#6a6a6a" stroke-width="1.51"/><path d="M507,1147L368,1251L637,1189Z" fill="#606060" stroke="#606060" stroke-width="1.51"/><path d="M621,630L525,719L652,773Z" fill="#7b7b7b" stroke="#7b7b7b" stroke-width="1.51"/><path d="M538,204L524,297L671,203Z" fill="#8f8f8f" stroke="#8f8f8f" stroke-width="1.51"/><path d="M627,115L538,204L671,203Z" fill="#838383" stroke="#838383" stroke-width="1.51"/><path d="M610,873L485,1035L674,932Z" fill="#6c6c6c" stroke="#6c6c6c" stroke-width="1.51"/><path d="M522,-5L527,104L627,115Z" fill="#717171" stroke="#717171" stroke-width="1.51"/><path d="M506,553L621,630L647,514Z" fill="#888888" stroke="#888888" stroke-width="1.51"/><path d="M525,719L610,873L652,773Z" fill="#757575" stroke="#757575" stroke-width="1.51"/><path d="M475,1026L485,1035L610,873Z" fill="#656565" stroke="#656565" stroke-width="1.51"/><path d="M466,889L475,1026L610,873Z" fill="#676767" stroke="#676767" stroke-width="1.51"/><path d="M575,466L506,553L647,514Z" fill="#8d8d8d" stroke="#8d8d8d" stroke-width="1.51"/><path d="M522,-5L632,-41L640,-113Z" fill="#5d5d5d" stroke="#5d5d5d" stroke-width="1.51"/><path d="M458,-76L522,-5L640,-113Z" fill="#595959" stroke="#595959" stroke-width="1.51"/><path d="M469,-150L458,-76L640,-113Z" fill="#505050" stroke="#505050" stroke-width="1.51"/><path d="M485,1035L507,1147L611,1141Z" fill="#646464" stroke="#646464" stroke-width="1.51"/><path d="M527,104L538,204L627,115Z" fill="#7d7d7d" stroke="#7d7d7d" stroke-width="1.51"/><path d="M611,1141L507,1147L637,1189Z" fill="#676767" stroke="#676767" stroke-width="1.51"/><path d="M525,719L449,789L610,873Z" fill="#717171" stroke="#717171" stroke-width="1.51"/><path d="M449,789L466,889L610,873Z" fill="#6b6b6b" stroke="#6b6b6b" stroke-width="1.51"/><path d="M506,553L525,719L621,630Z" fill="#808080" stroke="#808080" stroke-width="1.51"/><path d="M506,553L480,700L525,719Z" fill="#797979" stroke="#797979" stroke-width="1.51"/><path d="M519,436L575,466L598,369Z" fill="#919191" stroke="#919191" stroke-width="1.51"/><path d="M524,297L519,436L598,369Z" fill="#939393" stroke="#939393" stroke-width="1.51"/><path d="M176,1196L-57,1253L368,1251Z" fill="#3f3f3f" stroke="#3f3f3f" stroke-width="1.51"/><path d="M519,436L506,553L575,466Z" fill="#8a8a8a" stroke="#8a8a8a" stroke-width="1.51"/><path d="M449,789L432,838L466,889Z" fill="#656565" stroke="#656565" stroke-width="1.51"/><path d="M398,635L480,700L506,553Z" fill="#777777" stroke="#777777" stroke-width="1.51"/><path d="M422,449L506,553L519,436Z" fill="#858585" stroke="#858585" stroke-width="1.51"/><path d="M413,348L519,436L524,297Z" fill="#8d8d8d" stroke="#8d8d8d" stroke-width="1.51"/><path d="M522,-5L424,-32L527,104Z" fill="#626262" stroke="#626262" stroke-width="1.51"/><path d="M527,104L462,230L538,204Z" fill="#7e7e7e" stroke="#7e7e7e" stroke-width="1.51"/><path d="M462,230L524,297L538,204Z" fill="#898989" stroke="#898989" stroke-width="1.51"/><path d="M466,889L399,957L475,1026Z" fill="#5f5f5f" stroke="#5f5f5f" stroke-width="1.51"/><path d="M417,550L398,635L506,553Z" fill="#797979" stroke="#797979" stroke-width="1.51"/><path d="M422,449L417,550L506,553Z" fill="#7e7e7e" stroke="#7e7e7e" stroke-width="1.51"/><path d="M413,348L422,449L519,436Z" fill="#868686" stroke="#868686" stroke-width="1.51"/><path d="M458,-76L424,-32L522,-5Z" fill="#565656" stroke="#565656" stroke-width="1.51"/><path d="M480,700L449,789L525,719Z" fill="#717171" stroke="#717171" stroke-width="1.51"/><path d="M357,146L462,230L527,104Z" fill="#747474" stroke="#747474" stroke-width="1.51"/><path d="M424,-32L357,146L527,104Z" fill="#646464" stroke="#646464" stroke-width="1.51"/><path d="M462,230L413,348L524,297Z" fill="#8d8d8d" stroke="#8d8d8d" stroke-width="1.51"/><path d="M485,1035L377,1050L507,1147Z" fill="#5c5c5c" stroke="#5c5c5c" stroke-width="1.51"/><path d="M377,1050L368,1251L507,1147Z" fill="#585858" stroke="#585858" stroke-width="1.51"/><path d="M299,1215L176,1196L368,1251Z" fill="#4a4a4a" stroke="#4a4a4a" stroke-width="1.51"/><path d="M475,1026L377,1050L485,1035Z" fill="#5b5b5b" stroke="#5b5b5b" stroke-width="1.51"/><path d="M398,635L449,789L480,700Z" fill="#6e6e6e" stroke="#6e6e6e" stroke-width="1.51"/><path d="M299,1215L368,1251L377,1050Z" fill="#515151" stroke="#515151" stroke-width="1.51"/><path d="M289,39L357,146L424,-32Z" fill="#595959" stroke="#595959" stroke-width="1.51"/><path d="M399,957L377,1050L475,1026Z" fill="#595959" stroke="#595959" stroke-width="1.51"/><path d="M398,635L337,805L449,789Z" fill="#676767" stroke="#676767" stroke-width="1.51"/><path d="M290,263L413,348L462,230Z" fill="#828282" stroke="#828282" stroke-width="1.51"/><path d="M309,-151L458,-76L469,-150Z" fill="#424242" stroke="#424242" stroke-width="1.51"/><path d="M432,838L399,957L466,889Z" fill="#616161" stroke="#616161" stroke-width="1.51"/><path d="M309,-151L424,-32L458,-76Z" fill="#474747" stroke="#474747" stroke-width="1.51"/><path d="M357,146L290,263L462,230Z" fill="#757575" stroke="#757575" stroke-width="1.51"/><path d="M337,805L432,838L449,789Z" fill="#636363" stroke="#636363" stroke-width="1.51"/><path d="M270,1093L299,1215L377,1050Z" fill="#4e4e4e" stroke="#4e4e4e" stroke-width="1.51"/><path d="M413,348L308,399L422,449Z" fill="#7f7f7f" stroke="#7f7f7f" stroke-width="1.51"/><path d="M328,561L417,550L422,449Z" fill="#787878" stroke="#787878" stroke-width="1.51"/><path d="M337,805L399,957L432,838Z" fill="#5e5e5e" stroke="#5e5e5e" stroke-width="1.51"/><path d="M246,642L337,805L398,635Z" fill="#636363" stroke="#636363" stroke-width="1.51"/><path d="M337,805L251,871L399,957Z" fill="#575757" stroke="#575757" stroke-width="1.51"/><path d="M328,561L398,635L417,550Z" fill="#727272" stroke="#727272" stroke-width="1.51"/><path d="M308,399L328,561L422,449Z" fill="#777777" stroke="#777777" stroke-width="1.51"/><path d="M309,-151L289,39L424,-32Z" fill="#474747" stroke="#474747" stroke-width="1.51"/><path d="M290,263L308,399L413,348Z" fill="#7f7f7f" stroke="#7f7f7f" stroke-width="1.51"/><path d="M251,871L258,988L399,957Z" fill="#515151" stroke="#515151" stroke-width="1.51"/><path d="M258,988L377,1050L399,957Z" fill="#515151" stroke="#515151" stroke-width="1.51"/><path d="M290,263L263,367L308,399Z" fill="#787878" stroke="#787878" stroke-width="1.51"/><path d="M328,561L246,642L398,635Z" fill="#6a6a6a" stroke="#6a6a6a" stroke-width="1.51"/><path d="M186,-66L289,39L309,-151Z" fill="#3e3e3e" stroke="#3e3e3e" stroke-width="1.51"/><path d="M308,399L229,431L328,561Z" fill="#717171" stroke="#717171" stroke-width="1.51"/><path d="M246,642L224,773L337,805Z" fill="#5a5a5a" stroke="#5a5a5a" stroke-width="1.51"/><path d="M258,988L270,1093L377,1050Z" fill="#4c4c4c" stroke="#4c4c4c" stroke-width="1.51"/><path d="M289,39L240,73L357,146Z" fill="#585858" stroke="#585858" stroke-width="1.51"/><path d="M208,677L224,773L246,642Z" fill="#595959" stroke="#595959" stroke-width="1.51"/><path d="M240,73L290,263L357,146Z" fill="#646464" stroke="#646464" stroke-width="1.51"/><path d="M255,51L240,73L289,39Z" fill="#4f4f4f" stroke="#4f4f4f" stroke-width="1.51"/><path d="M240,73L145,212L290,263Z" fill="#616161" stroke="#616161" stroke-width="1.51"/><path d="M224,773L251,871L337,805Z" fill="#555555" stroke="#555555" stroke-width="1.51"/><path d="M150,587L246,642L328,561Z" fill="#626262" stroke="#626262" stroke-width="1.51"/><path d="M229,431L150,587L328,561Z" fill="#686868" stroke="#686868" stroke-width="1.51"/><path d="M258,988L214,1069L270,1093Z" fill="#474747" stroke="#474747" stroke-width="1.51"/><path d="M186,-66L255,51L289,39Z" fill="#474747" stroke="#474747" stroke-width="1.51"/><path d="M270,1093L176,1196L299,1215Z" fill="#474747" stroke="#474747" stroke-width="1.51"/><path d="M263,367L229,431L308,399Z" fill="#737373" stroke="#737373" stroke-width="1.51"/><path d="M92,-121L186,-66L309,-151Z" fill="#303030" stroke="#303030" stroke-width="1.51"/><path d="M206,869L220,994L251,871Z" fill="#4b4b4b" stroke="#4b4b4b" stroke-width="1.51"/><path d="M251,871L220,994L258,988Z" fill="#4a4a4a" stroke="#4a4a4a" stroke-width="1.51"/><path d="M220,994L214,1069L258,988Z" fill="#454545" stroke="#454545" stroke-width="1.51"/><path d="M146,362L263,367L290,263Z" fill="#747474" stroke="#747474" stroke-width="1.51"/><path d="M145,212L146,362L290,263Z" fill="#6e6e6e" stroke="#6e6e6e" stroke-width="1.51"/><path d="M119,449L150,587L229,431Z" fill="#636363" stroke="#636363" stroke-width="1.51"/><path d="M224,773L206,869L251,871Z" fill="#4f4f4f" stroke="#4f4f4f" stroke-width="1.51"/><path d="M186,-66L158,22L255,51Z" fill="#424242" stroke="#424242" stroke-width="1.51"/><path d="M214,1069L176,1196L270,1093Z" fill="#444444" stroke="#444444" stroke-width="1.51"/><path d="M146,362L229,431L263,367Z" fill="#6e6e6e" stroke="#6e6e6e" stroke-width="1.51"/><path d="M158,22L240,73L255,51Z" fill="#4a4a4a" stroke="#4a4a4a" stroke-width="1.51"/><path d="M122,1092L176,1196L214,1069Z" fill="#3f3f3f" stroke="#3f3f3f" stroke-width="1.51"/><path d="M158,22L145,212L240,73Z" fill="#4f4f4f" stroke="#4f4f4f" stroke-width="1.51"/><path d="M150,587L208,677L246,642Z" fill="#5b5b5b" stroke="#5b5b5b" stroke-width="1.51"/><path d="M109,1168L-57,1253L176,1196Z" fill="#373737" stroke="#373737" stroke-width="1.51"/><path d="M206,869L80,907L220,994Z" fill="#444444" stroke="#444444" stroke-width="1.51"/><path d="M208,677L134,698L224,773Z" fill="#545454" stroke="#545454" stroke-width="1.51"/><path d="M116,795L206,869L224,773Z" fill="#4c4c4c" stroke="#4c4c4c" stroke-width="1.51"/><path d="M146,362L119,449L229,431Z" fill="#676767" stroke="#676767" stroke-width="1.51"/><path d="M119,449L130,583L150,587Z" fill="#5c5c5c" stroke="#5c5c5c" stroke-width="1.51"/><path d="M50,59L145,212L158,22Z" fill="#494949" stroke="#494949" stroke-width="1.51"/><path d="M80,907L68,1006L220,994Z" fill="#3d3d3d" stroke="#3d3d3d" stroke-width="1.51"/><path d="M122,1092L214,1069L220,994Z" fill="#414141" stroke="#414141" stroke-width="1.51"/><path d="M134,698L116,795L224,773Z" fill="#4e4e4e" stroke="#4e4e4e" stroke-width="1.51"/><path d="M122,1092L109,1168L176,1196Z" fill="#3c3c3c" stroke="#3c3c3c" stroke-width="1.51"/><path d="M68,1006L122,1092L220,994Z" fill="#3c3c3c" stroke="#3c3c3c" stroke-width="1.51"/><path d="M150,587L134,698L208,677Z" fill="#565656" stroke="#565656" stroke-width="1.51"/><path d="M145,212L74,240L146,362Z" fill="#656565" stroke="#656565" stroke-width="1.51"/><path d="M116,795L80,907L206,869Z" fill="#454545" stroke="#454545" stroke-width="1.51"/><path d="M130,583L134,698L150,587Z" fill="#565656" stroke="#565656" stroke-width="1.51"/><path d="M92,-121L158,22L186,-66Z" fill="#343434" stroke="#343434" stroke-width="1.51"/><path d="M92,-121L30,14L158,22Z" fill="#333333" stroke="#333333" stroke-width="1.51"/><path d="M50,59L-11,194L74,240Z" fill="#4b4b4b" stroke="#4b4b4b" stroke-width="1.51"/><path d="M119,449L16,580L130,583Z" fill="#585858" stroke="#585858" stroke-width="1.51"/><path d="M50,59L74,240L145,212Z" fill="#515151" stroke="#515151" stroke-width="1.51"/><path d="M74,240L33,282L146,362Z" fill="#656565" stroke="#656565" stroke-width="1.51"/><path d="M30,14L50,59L158,22Z" fill="#3b3b3b" stroke="#3b3b3b" stroke-width="1.51"/><path d="M130,583L16,580L134,698Z" fill="#525252" stroke="#525252" stroke-width="1.51"/><path d="M33,282L119,449L146,362Z" fill="#646464" stroke="#646464" stroke-width="1.51"/><path d="M33,282L-57,391L119,449Z" fill="#5d5d5d" stroke="#5d5d5d" stroke-width="1.51"/><path d="M-22,727L116,795L134,698Z" fill="#474747" stroke="#474747" stroke-width="1.51"/><path d="M16,580L-22,727L134,698Z" fill="#4a4a4a" stroke="#4a4a4a" stroke-width="1.51"/><path d="M-9,846L80,907L116,795Z" fill="#3f3f3f" stroke="#3f3f3f" stroke-width="1.51"/><path d="M11,1107L109,1168L122,1092Z" fill="#373737" stroke="#373737" stroke-width="1.51"/><path d="M68,1006L11,1107L122,1092Z" fill="#363636" stroke="#363636" stroke-width="1.51"/><path d="M-57,391L16,580L119,449Z" fill="#565656" stroke="#565656" stroke-width="1.51"/><path d="M-22,727L-9,846L116,795Z" fill="#404040" stroke="#404040" stroke-width="1.51"/><path d="M11,1107L-57,1253L109,1168Z" fill="#323232" stroke="#323232" stroke-width="1.51"/><path d="M7,1008L11,1107L68,1006Z" fill="#333333" stroke="#333333" stroke-width="1.51"/><path d="M7,1008L68,1006L80,907Z" fill="#373737" stroke="#373737" stroke-width="1.51"/><path d="M-84,-145L30,14L92,-121Z" fill="#252525" stroke="#252525" stroke-width="1.51"/><path d="M-59,320L-57,391L33,282Z" fill="#5a5a5a" stroke="#5a5a5a" stroke-width="1.51"/><path d="M-9,846L7,1008L80,907Z" fill="#383838" stroke="#383838" stroke-width="1.51"/><path d="M-68,622L-22,727L16,580Z" fill="#454545" stroke="#454545" stroke-width="1.51"/><path d="M-11,194L33,282L74,240Z" fill="#575757" stroke="#575757" stroke-width="1.51"/><path d="M-57,391L-93,571L16,580Z" fill="#4c4c4c" stroke="#4c4c4c" stroke-width="1.51"/><path d="M-80,72L-11,194L18,39Z" fill="#3c3c3c" stroke="#3c3c3c" stroke-width="1.51"/><path d="M18,39L-11,194L50,59Z" fill="#3f3f3f" stroke="#3f3f3f" stroke-width="1.51"/><path d="M-84,-145L-141,-23L30,14Z" fill="#222222" stroke="#222222" stroke-width="1.51"/><path d="M30,14L18,39L50,59Z" fill="#373737" stroke="#373737" stroke-width="1.51"/><path d="M-9,846L-167,940L7,1008Z" fill="#2f2f2f" stroke="#2f2f2f" stroke-width="1.51"/><path d="M-80,72L18,39L30,14Z" fill="#343434" stroke="#343434" stroke-width="1.51"/><path d="M-141,-23L-80,72L30,14Z" fill="#2d2d2d" stroke="#2d2d2d" stroke-width="1.51"/><path d="M-11,194L-59,320L33,282Z" fill="#575757" stroke="#575757" stroke-width="1.51"/><path d="M-125,843L-167,940L-9,846Z" fill="#2f2f2f" stroke="#2f2f2f" stroke-width="1.51"/><path d="M-144,1165L-57,1253L11,1107Z" fill="#2b2b2b" stroke="#2b2b2b" stroke-width="1.51"/><path d="M-86,310L-59,320L-11,194Z" fill="#555555" stroke="#555555" stroke-width="1.51"/><path d="M7,1008L-117,1050L11,1107Z" fill="#2d2d2d" stroke="#2d2d2d" stroke-width="1.51"/><path d="M-167,940L-117,1050L7,1008Z" fill="#292929" stroke="#292929" stroke-width="1.51"/><path d="M-93,571L-68,622L16,580Z" fill="#464646" stroke="#464646" stroke-width="1.51"/><path d="M-158,439L-93,571L-57,391Z" fill="#4a4a4a" stroke="#4a4a4a" stroke-width="1.51"/><path d="M-22,727L-125,843L-9,846Z" fill="#373737" stroke="#373737" stroke-width="1.51"/><path d="M-117,1050L-144,1165L11,1107Z" fill="#292929" stroke="#292929" stroke-width="1.51"/><path d="M-68,622L-128,683L-22,727Z" fill="#3e3e3e" stroke="#3e3e3e" stroke-width="1.51"/><path d="M-166,182L-86,310L-11,194Z" fill="#4a4a4a" stroke="#4a4a4a" stroke-width="1.51"/><path d="M-80,72L-159,131L-11,194Z" fill="#3b3b3b" stroke="#3b3b3b" stroke-width="1.51"/><path d="M-159,131L-166,182L-11,194Z" fill="#3e3e3e" stroke="#3e3e3e" stroke-width="1.51"/><path d="M-144,706L-125,843L-22,727Z" fill="#363636" stroke="#363636" stroke-width="1.51"/><path d="M-157,-98L-141,-23L-84,-145Z" fill="#181818" stroke="#181818" stroke-width="1.51"/><path d="M-128,683L-144,706L-22,727Z" fill="#3a3a3a" stroke="#3a3a3a" stroke-width="1.51"/><path d="M-59,320L-86,310L-57,391Z" fill="#555555" stroke="#555555" stroke-width="1.51"/><path d="M-86,310L-158,439L-57,391Z" fill="#4f4f4f" stroke="#4f4f4f" stroke-width="1.51"/><path d="M-93,571L-128,683L-68,622Z" fill="#404040" stroke="#404040" stroke-width="1.51"/><path d="M-141,-23L-159,131L-80,72Z" fill="#2d2d2d" stroke="#2d2d2d" stroke-width="1.51"/><path d="M-166,182L-158,439L-86,310Z" fill="#505050" stroke="#505050" stroke-width="1.51"/><path d="M-158,439L-128,683L-93,571Z" fill="#414141" stroke="#414141" stroke-width="1.51"/><path d="M-158,439L-144,706L-128,683Z" fill="#3d3d3d" stroke="#3d3d3d" stroke-width="1.51"/><path d="M-167,940L-144,1165L-117,1050Z" fill="#242424" stroke="#242424" stroke-width="1.51"/><path d="M-144,706L-167,940L-125,843Z" fill="#2d2d2d" stroke="#2d2d2d" stroke-width="1.51"/><path d="M-157,-98L-159,131L-141,-23Z" fill="#232323" stroke="#232323" stroke-width="1.51"/><path d="M-158,439L-167,940L-144,706Z" fill="#353535" stroke="#353535" stroke-width="1.51"/><path d="M-166,182L-159,131L-157,-98Z" fill="#2b2b2b" stroke="#2b2b2b" stroke-width="1.51"/><path d="M-166,182L-167,940L-158,439Z" fill="#414141" stroke="#414141" stroke-width="1.51"/></svg>